<?xml version="1.0"?>
<svg width="98" height="109" xmlns="http://www.w3.org/2000/svg" xmlns:svg="http://www.w3.org/2000/svg">
 <g class="layer">
  <title>Layer 1</title>
  <circle cx="1.6" cy="108.26" fill="white" fill-opacity="0.16" id="svg_1" r="33.87"/>
  <path clip-rule="evenodd" d="m79.2,98.09c-4.98,-38.41 -37.82,-68.09 -77.6,-68.09c-39.77,0 -72.62,29.68 -77.6,68.09l28.57,0c4.7,-22.77 24.87,-39.9 49.03,-39.9c24.17,0 44.33,17.13 49.03,39.9l28.57,0zm0,20.33l-28.57,0c-4.7,22.77 -24.86,39.89 -49.03,39.89c-24.16,0 -44.33,-17.12 -49.03,-39.89l-28.57,0c4.98,38.41 37.83,68.09 77.6,68.09c39.78,0 72.62,-29.68 77.6,-68.09z" fill="white" fill-opacity="0.16" fill-rule="evenodd" id="svg_2"/>
 </g>
</svg>